<svg id="Layer_1" data-name="Layer 1" xmlns="http://www.w3.org/2000/svg" viewBox="0 0 1280 800"><defs><style>.cls-1{fill:#333;}</style></defs><title>iTeams</title><path class="cls-1" d="M596.45,139.5c-104.73,0-189.62,84.9-189.62,189.62s84.89,189.62,189.62,189.62,189.62-84.89,189.62-189.62S701.17,139.5,596.45,139.5Zm0,368.66a179,179,0,1,1,179-179A179,179,0,0,1,596.45,508.16Z"/><path class="cls-1" d="M469.2,210.84a173.71,173.71,0,0,0,0,236.56L587.48,329.12Z"/><path class="cls-1" d="M714.73,201.88A173.71,173.71,0,0,0,480.17,200l118.2,118.2Z"/><path class="cls-1" d="M480.17,458.21a173.72,173.72,0,0,0,234.56-1.84L598.37,340Z"/><path class="cls-1" d="M725.54,212.85,609.26,329.12,725.54,445.4a173.72,173.72,0,0,0,0-232.55Z"/><path class="cls-1" d="M419,550.55l19.39,19.39v40.37H419Z"/><path class="cls-1" d="M513.17,555.11V568.8H492.41v20.3l-13.69-13.69V568.8H458V555.11Zm-34.45,26.58,13.69,13.68v14.94H478.72Z"/><path class="cls-1" d="M541.68,589.44,525,572.79V555h46.08v13.68H540.2l7.18,7.19h23.84v13.69Zm29.54,7.19v13.68H525.14V579.06l13.69,13.69v3.88Z"/><path class="cls-1" d="M606.81,571.42l8,13.23-15.62,25.66h-16Zm44.6,39h-16L632.13,605,609.32,567.2l8-13.12Z"/><path class="cls-1" d="M663.5,578.61l13.68,13.68v18H663.5Zm55.31-23.5v55.2H705.13V586l-13.92,13.91L677.3,586l-13.69-13.69V555.11h2.17l25.43,25.43,25.44-25.43Z"/><path class="cls-1" d="M787,589.33a18.61,18.61,0,0,1,0,10,17.6,17.6,0,0,1-16.42,12.2h-38V597.88h38a3.54,3.54,0,0,0,0-7.07H749.84a18.65,18.65,0,0,1-5-.68,17.23,17.23,0,0,1-11.64-11.64,18.83,18.83,0,0,1,0-10,17.23,17.23,0,0,1,11.64-11.64c.46-.11.91-.23,1.25-.34l.57-.12L760,569.71H749.72a3.54,3.54,0,0,0,0,7.07h24.64l.11.12h.35a6.54,6.54,0,0,1,.91.34h.11l.69.34.68.34h.34l.35.34.68.35.34.22a1.66,1.66,0,0,1,.46.35l.34.34h.11l1,.68.34.34.35.35.11.11.34.34.69.69.11.23v.45l.34.34.35.35v.34l.11.11.68,1.37v.11c.12.35.23.69.35,1l.11.23.23.68v.35l.23.57Zm-1.14-34.22V568.8H764.32l-13.68-13.69Z"/><path class="cls-1" d="M428.75,528.69a9.64,9.64,0,1,0,9.64,9.64A9.65,9.65,0,0,0,428.75,528.69Zm0,18.14a8.5,8.5,0,1,1,8.5-8.5A8.5,8.5,0,0,1,428.75,546.83Z"/><path class="cls-1" d="M422.43,533.54a7.89,7.89,0,0,0-.05,9.51l4.78-4.78Z"/><path class="cls-1" d="M433.47,532a7.89,7.89,0,0,0-9.43,0l4.73,4.72Z"/><path class="cls-1" d="M424,544.66a7.88,7.88,0,0,0,9.56,0l-4.77-4.77Z"/><path class="cls-1" d="M435.08,533.56l-4.71,4.71,4.76,4.77a7.88,7.88,0,0,0-.05-9.48Z"/></svg>